# xmcd
#
# Track frame offsets:
#	150
#	13350
#	26720
#	45034
#	59708
#	72240
#	85527
#	97090
#	111858
#	116180
#	131953
#	146096
#	164536
#	179899
#	193039
#	197267
#	208413
#	225424
#	238804
#	257268
#	260639
#	275857
#	290060
#	299623
#
# Disc length: 4170 seconds
#
# Revision: 0
# Processed by: cddbd v1.5.2PL0 Copyright (c) Steve Scherf et al.
# Submitted via: EZCDAudioConverter 2.1.7.1
#
DISCID=89104818
DTITLE=Karl Hector and The Malcouns - Can't Stand The Pressure
DYEAR=1900
DGENRE=
TTITLE0=Roads Of Otumpa [Vocal]
TTITLE1=Leealeh
TTITLE2=Ngunga Yeti Fofa
TTITLE3=Kingdom Of D'MT
TTITLE4=Shangold
TTITLE5=Circles
TTITLE6=Chess Break
TTITLE7=Ka Rica-Tar
TTITLE8=Transition >X<
TTITLE9=Orange
TTITLE10=The Cave
TTITLE11=Irtijal
TTITLE12=Tamanrasset
TTITLE13=J.B. Rip
TTITLE14=Transition >G<
TTITLE15=Can't Stand The Pressure
TTITLE16=M'Hammath [Live]
TTITLE17=Coomassi
TTITLE18=Dege Dub
TTITLE19=Transition >F<
TTITLE20=Medium Rare (Part 1)
TTITLE21=The Funk (Happysad)
TTITLE22=Beyond Squares
TTITLE23=Roads Of Otumpa [Instrumental]
EXTD=
EXTT0=
EXTT1=
EXTT2=
EXTT3=
EXTT4=
EXTT5=
EXTT6=
EXTT7=
EXTT8=
EXTT9=
EXTT10=
EXTT11=
EXTT12=
EXTT13=
EXTT14=
EXTT15=
EXTT16=
EXTT17=
EXTT18=
EXTT19=
EXTT20=
EXTT21=
EXTT22=
EXTT23=
PLAYORDER=
